[IMG]http://i1232.photobucket.com/albums/ff374/streak447/Movies/A_Bugs_Life_R0_CUSTOM-cd-wwwFreeCoversnet.jpg[/IMG]

DESCRIPTION:
A misfit ant, looking for "warriors" to save his colony from greedy grasshoppers, recruits a group of bugs that turn out to be an inept circus troupe.
IMDB Trailer HERE: http://www.imdb.com/video/screenplay/vi294912537/
General
Complete name:A Bug's Life [1998] 720p.mp4
Format: MPEG-4
Format profile: Base Media / Version 2
Codec ID: mp42
File Size: 1.21 GiB
Duration: 1h 34mn
Overall bit rate: 1 823 Kbps
Writing library: AVS
Video
ID: 1
Format: AVC
Format/Info: Advanced Video Codec
Format profile: Baseline@L1.3
Format settings, CABAC: No
Format settings, ReFrames: 1 frame
Codec ID: avc1
Codec ID/Info: Advanced Video Coding
Duration: 1h 34mn
Bit rate: 1 693 Kbps
Width: 800 pixels
Height: 480 pixels
Display aspect ratio: 1.667
Frame rate mode: Constant
Frame rate: 24.000 fps
Color space: YUV
Chroma subsampling: 4:2:0
Bit depth: 8 bits
Scan type: Progressive
Bits/(Pixel*Frame): 0.184
Stream size: 1.12 GiB (93%)
Language: English
Color primaries: BT.709
Transfer characteristics: BT.709
Matrix coefficients: BT.709
Audio
ID: 2
Format: AAC
Format/Info: Advanced Audio Codec
Format profile: LC
Codec ID: 40
Duration: 1h 34mn
Bit rate mode: Constant
Bit rate: 128 Kbps
Channel(s): 2 channels
Channel positions: Front: L R
Sampling rate: 48.0 KHz
Compression mode: Lossy
Stream size: 85.0 MiB (7%)
Language: English
[color=lime]
I hope you enjoy,

Allyoucanbe[/color]